#!OML:ASF F:\VICON\USERDATA\INSTALL\Justin_Nancy\Justin_Nancy.ASF
:FULLY-SPECIFIED
:DEGREES
346
root -0.704965 17.3529 11.9798 -100.171 -84.3684 104.641
lowerback 7.24261 -0.0600562 -6.18117
upperback 0.104369 -0.61706 -0.063447
thorax -3.89733 -0.197989 3.47439
lowerneck -16.718 -4.39029 -7.26277
upperneck 23.4878 -5.73616 4.91554
head 10.671 -2.79944 2.14339
rclavicle -1.04362e-015 7.15625e-015
rhumerus -32.2916 -14.5568 -82.2714
rradius 34.2749
rwrist -0.89802
rhand -16.3889 12.7315
rfingers 7.12502
rthumb 9.82497 -17.0193
lclavicle -1.04362e-015 7.15625e-015
lhumerus -24.2356 9.75832 84.99
lradius 26.6511
lwrist -10.9665
lhand -14.2088 24.0366
lfingers 7.12502
lthumb 11.9278 53.6768
rfemur -32.4358 -0.728309 19.0739
rtibia 24.8023
rfoot -10.1697 -8.19221
rtoes 17.1803
lfemur -1.12489 3.03453 -28.1556
ltibia 19.9537
lfoot -16.303 -12.0124
ltoes 17.0472
347
root -0.842834 17.3515 12.0132 -97.6187 -84.2121 102.189
lowerback 7.09245 -0.105198 -5.91354
upperback 0.132099 -0.655727 -0.32437
thorax -3.78537 -0.229349 3.05389
lowerneck -16.7822 -4.42886 -7.01389
upperneck 23.4608 -5.85835 4.93392
head 10.6739 -2.82891 2.08937
rclavicle 6.4605e-016 -3.97569e-016
rhumerus -32.3578 -15.8669 -82.1117
rradius 34.0023
rwrist 1.25659
rhand -15.6048 12.4342
rfingers 7.12502
rthumb 10.5814 -17.2794
lclavicle 6.4605e-016 -3.97569e-016
lhumerus -24.0117 9.71114 84.9301
lradius 27.0378
lwrist -11.3963
lhand -13.6242 24.0114
lfingers 7.12502
lthumb 12.4914 53.618
rfemur -32.1086 0.0601921 18.3807
rtibia 22.2897
rfoot -10.1817 -9.22755
rtoes 18.3478
lfemur -0.304035 2.68705 -28.5589
ltibia 19.1439
lfoot -16.2066 -11.5861
ltoes 15.1509
348
root -0.97135 17.3674 12.0133 -87.5833 -86.5229 92.7086
lowerback 6.73648 -0.438984 -3.61484
upperback -0.0589963 -0.866361 0.276742
thorax -3.78395 -0.362943 2.40339
lowerneck -16.7907 -4.56546 -6.80255
upperneck 23.5167 -6.04892 4.68533
head 10.6936 -2.92654 1.9362
rclavicle 9.59136e-015 -2.38542e-015
rhumerus -32.6603 -17.4253 -81.6812
rradius 33.7943
rwrist 3.47254
rhand -14.9499 12.522
rfingers 7.12502
rthumb 11.2131 -17.1583
lclavicle 9.59136e-015 -2.38542e-015
lhumerus -23.9452 8.63617 85.2817
lradius 27.5551
lwrist -10.5129
lhand -13.5075 23.5791
lfingers 7.12502
lthumb 12.604 53.1788
rfemur -32.1701 0.924839 20.3053
rtibia 19.9849
rfoot -10.4448 -10.9943
rtoes 16.827
lfemur -0.137969 3.114 -25.9008
ltibia 18.3534
lfoot -15.8193 -12.666
ltoes 13.3385
349
root -1.13276 17.3469 12.0318 -94.8005 -83.8407 99.262
lowerback 7.00196 -0.129767 -6.33876
upperback 0.190201 -0.71878 -0.387966
thorax -3.66438 -0.259547 3.23138
lowerneck -16.8106 -4.56442 -6.93779
upperneck 23.6189 -6.00172 4.63278
head 10.7351 -2.92417 1.94655
rclavicle 7.45443e-016 3.57812e-014
rhumerus -32.8151 -17.8241 -81.4047
rradius 33.5471
rwrist 4.57047
rhand -15.0052 12.7996
rfingers 7.12502
rthumb 11.1597 -16.8837
lclavicle 7.45443e-016 3.57812e-014
lhumerus -23.8487 7.3571 85.6167
lradius 28.0256
lwrist -8.91954
lhand -14.0675 23.4928
lfingers 7.12502
lthumb 12.064 53.1251
rfemur -31.2799 1.32722 17.3257
rtibia 18.1622
rfoot -10.333 -10.636
rtoes 13.2322
lfemur 1.74571 3.23517 -29.0008
ltibia 17.5137
lfoot -15.7391 -11.7415
ltoes 13.5313
350
root -1.27182 17.3453 12.0337 -92.2818 -83.97 96.7897
lowerback 7.00354 -0.312365 -6.3549
upperback 0.145005 -0.955984 -0.220125
thorax -3.68487 -0.3728 3.43886
lowerneck -16.7691 -4.43817 -7.29184
upperneck 23.5787 -5.78052 4.84859
head 10.7164 -2.83013 2.11696
rclavicle 1.44119e-015 1.74931e-014
rhumerus -32.7687 -17.1154 -81.4009
rradius 33.2274
rwrist 4.36434
rhand -15.6087 12.6364
rfingers 7.12502
rthumb 10.5777 -17.0774
lclavicle 1.44119e-015 1.74931e-014
lhumerus -23.6051 10.5491 84.2261
lradius 27.5915
lwrist -16.2775
lhand -10.6668 21.2504
lfingers 7.12502
lthumb 15.3415 50.6613
rfemur -30.9964 2.20192 17.0687
rtibia 16.4984
rfoot -10.4193 -11.7457
rtoes 9.08998
lfemur 2.4837 2.80907 -28.9385
ltibia 16.9445
lfoot -15.4195 -11.4664
ltoes 13.4134
351
root -1.4097 17.3397 12.0433 -88.8906 -83.7732 93.6146
lowerback 6.82266 -0.41646 -6.51704
upperback 0.0748662 -1.09676 -0.243151
thorax -3.63921 -0.439627 3.51696
lowerneck -16.7913 -4.39675 -7.32184
upperneck 23.6016 -5.69643 4.79052
head 10.7225 -2.80093 2.11332
rclavicle -5.01931e-015 6.75868e-015
rhumerus -32.7844 -17.0099 -81.2169
rradius 32.7718
rwrist 4.54828
rhand -15.3209 13.1286
rfingers 7.12502
rthumb 10.8552 -16.5709
lclavicle -5.01931e-015 6.75868e-015
lhumerus -23.7052 6.12383 86.0226
lradius 29.0321
lwrist -7.17292
lhand -15.3367 24.7387
lfingers 7.12502
lthumb 10.84 54.4389
rfemur -31.3605 2.31684 16.725
rtibia 15.9503
rfoot -10.9908 -12.0951
rtoes 7.20648
lfemur 3.32 2.64784 -29.1701
ltibia 15.7578
lfoot -14.9013 -11.6362
ltoes 11.4564
352
root -1.54421 17.3254 12.0514 -86.182 -83.4524 91.0749
lowerback 6.72587 -0.560784 -6.87071
upperback -0.0206379 -1.31095 -0.208907
thorax -3.65343 -0.53623 3.77048
lowerneck -16.821 -4.25874 -7.5579
upperneck 23.7782 -5.44826 4.80296
head 10.7839 -2.71011 2.19449
rclavicle 6.06293e-015 -7.95139e-016
rhumerus -32.9197 -17.3189 -80.6587
rradius 32.3262
rwrist 6.25214
rhand -13.5868 14.0617
rfingers 7.12502
rthumb 12.5275 -15.5427
lclavicle 6.06293e-015 -7.95139e-016
lhumerus -23.7285 5.4899 86.1028
lradius 29.457
lwrist -6.40224
lhand -11.8477 22.565
lfingers 7.12502
lthumb 14.2037 52.0594
rfemur -30.6754 2.19661 16.3507
rtibia 13.7407
rfoot -11.2941 -12.0356
rtoes 8.74224
lfemur 3.19335 2.26408 -29.4641
ltibia 16.5959
lfoot -14.9424 -12.0484
ltoes 13.0095
353
root -1.67563 17.3177 12.0608 -83.5807 -83.4074 88.5462
lowerback 6.78778 -0.527784 -6.79494
upperback -0.105639 -1.27391 -0.310508
thorax -3.78524 -0.513561 3.62071
lowerneck -16.6432 -4.2739 -7.29299
upperneck 23.7378 -5.55105 4.76927
head 10.7319 -2.74083 2.12514
rclavicle 8.10048e-015 -3.97569e-015
rhumerus -33.3283 -17.8486 -80.3533
rradius 32.2702
rwrist 6.92104
rhand -13.0867 14.0817
rfingers 7.12502
rthumb 13.0097 -15.4927
lclavicle 8.10048e-015 -3.97569e-015
lhumerus -23.6448 5.19993 86.069
lradius 29.5944
lwrist -6.83852
lhand -10.9926 21.725
lfingers 7.12502
lthumb 15.0276 51.1597
rfemur -30.4689 1.85452 16.472
rtibia 12.9318
rfoot -11.1139 -11.9285
rtoes 6.20984
lfemur 3.5711 2.02445 -29.4189
ltibia 16.578
lfoot -14.4455 -12.5623
ltoes 15.616
354
root -1.8093 17.3202 12.0459 -69.9414 -86.0427 75.4261
lowerback 6.40034 -0.745069 -4.1182
upperback -0.228655 -1.29017 0.517917
thorax -3.72651 -0.559283 2.97246
lowerneck -16.8055 -4.39542 -7.11136
upperneck 23.7021 -5.68918 4.52906
head 10.7464 -2.81035 1.98509
rclavicle -1.81391e-014 7.95139e-016
rhumerus -33.3494 -17.8502 -80.3116
rradius 32.1092
rwrist 6.64484
rhand -14.284 13.4083
rfingers 7.12502
rthumb 11.8552 -16.2361
lclavicle -1.81391e-014 7.95139e-016
lhumerus -23.497 4.71547 86.5883
lradius 29.9794
lwrist -5.82668
lhand -13.9242 23.6703
lfingers 7.12502
lthumb 12.2022 53.2944
rfemur -30.4562 2.67187 19.2614
rtibia 12.1399
rfoot -10.5752 -12.9795
rtoes 3.35921
lfemur 3.16581 2.4568 -26.0126
ltibia 16.9431
lfoot -14.5779 -13.6739
ltoes 12.9728
355
root -1.96776 17.2882 12.0681 -88.1287 -83.5757 93.0055
lowerback 6.70109 -0.249061 -6.70834
upperback 0.00978659 -0.881624 -0.243028
thorax -3.65972 -0.327021 3.60291
lowerneck -16.8696 -4.40476 -7.1238
upperneck 23.641 -5.64473 4.37665
head 10.7293 -2.80625 1.93771
rclavicle -7.45443e-016 -7.55382e-015
rhumerus -33.4844 -17.7841 -80.3527
rradius 31.9552
rwrist 6.61584
rhand -15.132 12.921
rfingers 7.12502
rthumb 11.0375 -16.7688
lclavicle -7.45443e-016 -7.55382e-015
lhumerus -23.3781 4.54292 86.7717
lradius 30.2335
lwrist -5.22284
lhand -13.5835 23.3571
lfingers 7.12502
lthumb 12.5307 52.9614
rfemur -29.5757 1.87442 17.2529
rtibia 11.7294
rfoot -8.60785 -10.9594
rtoes 2.31106
lfemur 4.36843 3.06643 -29.1017
ltibia 17.1972
lfoot -15.2322 -12.9911
ltoes 10.1378
356
root -2.10405 17.2904 12.0756 -83.6883 -84.4933 88.6419
lowerback 6.685 -0.400207 -5.47778
upperback -0.00441988 -0.976069 -0.0945492
thorax -3.66973 -0.392245 3.07463
lowerneck -16.947 -4.46494 -7.28134
upperneck 23.6265 -5.72679 4.5667
head 10.7558 -2.83274 2.01904
rclavicle 1.26725e-014 1.03368e-014
rhumerus -33.6396 -18.4703 -80.3697
rradius 31.7781
rwrist 6.75375
rhand -14.2151 12.8224
rfingers 7.12502
rthumb 11.9217 -16.8181
lclavicle 1.26725e-014 1.03368e-014
lhumerus -23.2673 4.95712 86.3941
lradius 30.4035
lwrist -7.00755
lhand -9.65188 20.8609
lfingers 7.12502
lthumb 16.3189 50.1942
rfemur -29.4498 0.360209 19.0549
rtibia 11.6706
rfoot -7.04947 -9.72783
rtoes 3.08146
lfemur 4.56781 2.69475 -28.0007
ltibia 17.4497
lfoot -14.958 -13.3546
ltoes 9.45417
